<svg viewBox="0 0 28 28" fill="none" xmlns="http://www.w3.org/2000/svg">
    <path d="M8.39844 10.1008L9.99844 9.00078L13.9984 8.30078H14.3984" stroke="white" stroke-width="1.6"/>
    <path d="M12.3992 8.39922L10.8992 6.69922L6.99922 7.89922L4.89922 13.9992L4.69922 18.5992L6.69922 20.5992L8.99922 21.1992L10.4992 18.9992M10.4992 18.9992L13.9992 19.3992H14.3992M10.4992 18.9992L7.69922 17.2992"
          stroke="currentColor" stroke-width="1.6"/>
    <path d="M20.3984 10.1008L18.7984 9.00078L14.7984 8.30078H14.3984" stroke="white" stroke-width="1.6"/>
    <path d="M16.4016 8.39922L17.9016 6.69922L21.8016 7.89922L23.9016 13.9992L24.1016 18.5992L22.1016 20.5992L19.8016 21.1992L18.3016 18.9992M18.3016 18.9992L14.8016 19.3992H14.4016M18.3016 18.9992L21.1016 17.2992"
          stroke="currentColor" stroke-width="1.6"/>
    <path d="M9.19922 15.1008V13.2008L10.0992 12.3008H11.4992L12.3992 13.2008V15.1008L11.4992 16.0008H10.0992L9.19922 15.1008Z"
          stroke="currentColor" stroke-width="1.6"/>
    <path d="M16.1992 15.1008V13.2008L17.0992 12.3008H18.4992L19.3992 13.2008V15.1008L18.4992 16.0008H17.0992L16.1992 15.1008Z"
          stroke="currentColor" stroke-width="1.6"/>
</svg>
