<svg width="28" height="28" viewBox="0 0 28 28" fill="none" xmlns="http://www.w3.org/2000/svg">
<path d="M9.41883 17.407V14.8015L12.1653 20.7375L12.38 21.2016H12.8914H13.4368H13.9816L14.1812 20.6947L14.7276 19.307V19.7387V20.4016V21.2016H15.5276H22.1636H22.9636V20.4016V19.7387V19.2766L22.5634 19.0457L21.4183 18.3852V9.50175L22.6326 8.72298L23.0008 8.4869V8.04956V7.60156V6.80156H22.2008H17.6184H17.0791L16.8768 7.30148L14.3789 13.4746L11.4325 7.2589L11.2158 6.80156H10.7096H6.51221H5.71221V7.60156V8.04956V8.2924L5.84721 8.49427L6.81888 9.94726V17.4382L6.12093 18.1973L6.12092 18.1973L6.11789 18.2006L5.20884 19.2006L5.00078 19.4294V19.7387V20.4016V21.2016H5.80078H8.25521H10.7096H11.5096V20.4016V19.7387V19.3955L11.261 19.159L9.41883 17.407ZM14.7431 19.2677L16.273 15.3824V18.3852L15.1279 19.0457L14.7431 19.2677Z" stroke="currentColor" stroke-width="1.6"/>
</svg>
